<?xml version="1.0" encoding="utf-8"?><svg viewBox="0 0 74 105" xmlns="http://www.w3.org/2000/svg" xmlns:xlink="http://www.w3.org/1999/xlink"><style>:root>svg{display:none}:root>svg:target{display:block}</style><svg fill="none" viewBox="0 0 5 10" id="arrow" xmlns="http://www.w3.org/2000/svg">
    <path d="M.15 9.83c.22.22.56.22.77 0l3.6-3.68c.63-.65.63-1.7 0-2.35L.96.16a.532.532 0 0 0-.77 0c-.21.21-.21.56 0 .78l3.56 3.64c.22.22.22.57 0 .79L.15 9.05c-.21.22-.21.57 0 .78Z" fill="#151618"/>
</svg><svg fill="none" viewBox="0 0 20 22" id="cart" xmlns="http://www.w3.org/2000/svg">
    <path d="M14.59 5c-.02-.09-.04-.17-.06-.25-.27-1.05-.69-2.2-1.38-3.11C12.44.71 11.41 0 10 0 8.58 0 7.55.71 6.84 1.64c-.69.91-1.11 2.06-1.38 3.11-.02.08-.04.16-.06.25H3.78C2.18 5 .85 6.22.75 7.8L0 18.8C-.12 20.53 1.28 22 3.04 22h13.91c1.76 0 3.16-1.47 3.04-3.2l-.75-11c-.1-1.58-1.43-2.8-3.03-2.8h-1.62Zm-8.65 5c.58 0 1.01-.44 1.01-1.01v-.07c0-.05.01-.13.01-.23.01-.21.02-.51.05-.86.02-.26.05-.54.09-.83h5.79c.04.29.07.57.09.83.03.35.04.65.05.86 0 .1.01.18.01.23V9s0 1 1.01 1 1.01-1.01 1.01-1.01v-.37c-.01-.24-.03-.56-.06-.96-.02-.2-.04-.43-.07-.66h1.28c.53 0 .98.4 1.01.93l.74 11c.04.58-.42 1.07-1.01 1.07H3.04c-.59 0-1.05-.49-1.01-1.07l.74-11C2.8 7.4 3.25 7 3.78 7h1.28c-.03.23-.05.46-.07.66-.03.4-.05.72-.06.96v.37c-.01.57.43 1.01 1.01 1.01Zm1.55-5h5.01c-.24-.85-.56-1.61-.97-2.15C11.1 2.28 10.61 2 10 2c-.62 0-1.11.28-1.54.85-.41.54-.73 1.3-.97 2.15Z" fill="#151618" fill-rule="evenodd"/>
</svg><svg fill="none" viewBox="0 0 20 20" id="close-btn" xmlns="http://www.w3.org/2000/svg">
    <path d="M.55.55c-.74.74-.74 1.93 0 2.67L7.32 10 .55 16.77c-.74.74-.74 1.93 0 2.67s1.93.74 2.67 0L10 12.67l6.77 6.77c.74.74 1.93.74 2.67 0s.74-1.93 0-2.67L12.67 10l6.77-6.78c.74-.74.74-1.93 0-2.67s-1.93-.74-2.67 0L10 7.32 3.22.55C2.48-.19 1.29-.19.55.55Z" fill="#754E29"/>
</svg><svg fill="none" viewBox="0 0 22 16" id="envelop" xmlns="http://www.w3.org/2000/svg">
    <path d="M19 0c1.65 0 3 1.34 3 3v10c0 1.65-1.35 3-3 3H3c-1.66 0-3-1.35-3-3V3c0-1.66 1.34-3 3-3h16Zm-.75 2H3.74l6.64 5.23c.36.29.87.29 1.23 0L18.25 2ZM2 3.16V13c0 .55.44 1 1 1h16c.55 0 1-.45 1-1V3.16L12.85 8.8a2.99 2.99 0 0 1-3.71 0L2 3.16Z" fill="#151618" fill-rule="evenodd"/>
</svg><svg fill="none" viewBox="0 0 22 22" id="fb" xmlns="http://www.w3.org/2000/svg">
    <path d="M19 0c1.65 0 3 1.34 3 3v16c0 1.65-1.35 3-3 3H3c-1.66 0-3-1.35-3-3V3c0-1.66 1.34-3 3-3h16Zm0 2c.55 0 1 .44 1 1v16c0 .55-.45 1-1 1h-5v-7h2.07c.43 0 .81-.28.95-.69l.44-1.33c.16-.48-.2-.98-.71-.98H14V8c0-.5.5-1 1-1h2c.55 0 1-.45 1-1v-.69c0-.32-.21-.61-.52-.7-1.31-.34-2.48-.34-2.48-.34-2.5 0-4 1.73-4 3.23V10H9c-.56 0-1 .44-1 1v1c0 .55.44 1 1 1h2v7H3c-.56 0-1-.45-1-1V3c0-.56.44-1 1-1h16Z" fill="#151618" fill-rule="evenodd"/>
</svg><svg fill="none" viewBox="0 0 29 12" id="google" xmlns="http://www.w3.org/2000/svg">
    <defs>
        <clipPath id="fa">
            <path fill="#fff" fill-opacity="0" d="M0 0h29v12H0z"/>
        </clipPath>
    </defs>
    <path d="M0 0h29v12H0z"/>
    <g clip-path="url(#fa)">
        <path d="M20.55 3.23c.8 0 1.41.23 1.89.68.47.45.68 1.05.68 1.81v3.61h-1.01V8.5h-.04c-.43.68-1.05 1.02-1.77 1.02-.62 0-1.16-.19-1.6-.57-.4-.37-.65-.9-.65-1.46 0-.61.22-1.1.65-1.47.44-.38 1.05-.53 1.78-.53.65 0 1.16.11 1.56.38V5.6c0-.35-.13-.7-.38-.93l-.06-.04c-.29-.27-.65-.42-1.05-.42-.61 0-1.09.27-1.41.79l-.94-.6c.58-.79 1.34-1.17 2.35-1.17ZM15.44.67c.65 0 1.27.24 1.76.68l.09.08c.51.45.76 1.13.76 1.84 0 .72-.25 1.36-.76 1.85-.51.48-1.12.75-1.85.75l-1.74-.04v3.5h-1.08V.67h2.82Zm5.26 5.72c-.44 0-.8.12-1.09.34-.29.19-.44.46-.44.79 0 .31.15.57.37.72.25.19.54.3.83.3.41 0 .81-.16 1.13-.46l.07-.07c.36-.34.54-.75.54-1.2-.33-.26-.8-.42-1.41-.42Zm-5.19-4.66H13.7v3.01h1.81c.4 0 .8-.15 1.06-.45.57-.57.57-1.51.03-2.07l-.03-.04c-.29-.3-.66-.49-1.06-.45ZM29 3.42l-3.59 8.54h-1.09l1.34-2.97-2.35-5.53h1.16l1.7 4.25h.03l1.67-4.25H29v-.04Z" fill="#5F6368"/>
        <path d="M9.39 5.08c0-.34-.04-.68-.07-1.02H4.79v1.92h2.57c-.11.6-.43 1.17-.94 1.51v1.24h1.56c.9-.87 1.41-2.15 1.41-3.65Z" fill="#4285F4"/>
        <path d="M4.79 9.93c1.3 0 2.39-.45 3.19-1.2L6.42 7.49c-.44.3-.98.49-1.63.49-1.23 0-2.32-.87-2.68-2.07H.51v1.28c.83 1.69 2.47 2.74 4.28 2.74Z" fill="#34A853"/>
        <path d="M2.11 5.91c-.22-.61-.22-1.28 0-1.92V2.71H.51c-.69 1.39-.69 3.05 0 4.48l1.6-1.28Z" fill="#FBBC04"/>
        <path d="M4.79 1.95c.69 0 1.34.27 1.85.76l1.37-1.43C7.14.45 5.98-.04 4.82 0 3.01 0 1.34 1.05.55 2.74l1.59 1.28c.33-1.2 1.42-2.07 2.65-2.07Z" fill="#EA4335"/>
    </g>
</svg><svg fill="none" viewBox="0 0 60 60" id="icon-1" xmlns="http://www.w3.org/2000/svg">
    <path d="m25.55.15-.01-.02-.04.03C11.17 1.68 0 13.82 0 28.58c0 6.61 2.24 12.7 6 17.54v.01h.01a28.26 28.26 0 0 0 8.75 7.49 28.48 28.48 0 0 0 11.01 3.42c.13-1.36.46-2.79.96-4.22a24.206 24.206 0 0 1-16.08-7.83c.16-.68.23-1.48.28-2.17l.03-.34c.05-.63.1-1.23.18-1.85.2-1.5.54-2.51 1.08-3.08.68-.73 1.38-.86 2.85-1.12l.27-.04c.75-.14 1.76-.34 2.73-.87 1.04-.56 1.92-1.43 2.58-2.7.66-1.28.61-2.6.43-3.64-.17-.84-.39-1.66-.66-2.47-.04-.14-.09-.28-.13-.42-.58-1.91-.66-2.84-.17-3.58.52-.8 1.24-.98 3.12-1.47l.24-.06c1.9-.49 4.48-1.31 5.97-4.49 1.61-3.45.7-7.34-.29-9.97-.31-.83-.67-1.64-1.06-2.43.15-.01.3-.01.45-.01 4.58 0 9.07 1.3 12.95 3.75-.55.73-1.28 1.69-2.1 2.71-1.8 2.25-3.83 4.57-5.21 5.61-.64.46-1.12 1.11-1.39 1.85-.23.67-.28 1.4-.16 2.1.2 1.19.83 2.3 1.39 3.16.47.71 1.02 1.42 1.48 2.03l.31.41c.27.36.49.65.65.91a5 5 0 0 1 .18.29c.04.07.06.11.06.11.11.32.24.83.38 1.55l.06.3c1.27-.56 2.64-1 4.11-1.27-.12-.7-.3-1.39-.53-2.06-.32-.85-1-1.76-1.49-2.41l-.37-.49c-.44-.56-.86-1.14-1.25-1.73-.45-.67-.66-1.14-.73-1.42 1.85-1.44 4.13-4.11 5.85-6.25.85-1.06 1.6-2.05 2.16-2.8a24.232 24.232 0 0 1 7.88 16.63c1.66.13 3.09.35 4.31.6C56.71 12.41 44.08 0 28.55 0c-1.01 0-2.01.05-3 .15ZM6.95 39.68c-1.7-3.32-2.62-6.99-2.67-10.73-.06-3.73.74-7.43 2.35-10.8 1.6-3.37 3.95-6.33 6.88-8.64a24.16 24.16 0 0 1 9.99-4.7c.65 1.09 1.2 2.23 1.65 3.42.9 2.39 1.26 4.83.42 6.63-.64 1.37-1.56 1.75-3.16 2.17l-.47.11c-1.51.37-3.91.95-5.4 3.21-1.72 2.61-.87 5.47-.34 7.19l.17.55c.23.73.4 1.29.49 1.82.11.62.03.85-.01.93-.29.55-.57.78-.82.91-.32.18-.73.29-1.44.41-.11.03-.24.05-.37.07-1.32.21-3.42.56-5.13 2.4-1.39 1.48-1.9 3.46-2.14 5.05Zm21.62 18.08c.17-2.76 1.41-6.12 3.52-9.3.68-1.16 1.52-2.33 2.53-3.48a25.36 25.36 0 0 1 12.84-7.86c.37-.09.68-.33.88-.65.19-.33.25-.72.16-1.08-.09-.37-.33-.69-.65-.88-.33-.2-.72-.26-1.09-.17a28.31 28.31 0 0 0-14.29 8.76c-.76.87-1.45 1.77-2.07 2.69-.28-.94-.42-1.93-.42-2.91 0-2.62 1.33-5.47 3.44-7.73a15.18 15.18 0 0 1 9.13-4.67c7.99-1.06 12.95-.17 15.88.65.4.11.75.33 1.02.64.28.31.46.69.52 1.09.06.41.01.82-.16 1.2-.16.38-.43.7-.78.92-.16.11-.42.37-.74.97-.37.76-.68 1.55-.91 2.36-.25.81-.49 1.69-.74 2.65l-.17.6c-.32 1.18-.67 2.43-1.09 3.68-.83 2.46-2.01 5.09-3.99 7.11-2.05 2.1-4.84 3.4-8.56 3.4-3.8 0-6.45-1.54-8.14-3.31-1.16 2.12-1.75 4.11-1.85 5.58-.04.56-.3 1.08-.73 1.45-.42.37-.97.56-1.53.52a2.137 2.137 0 0 1-2.01-2.23Z" fill="#754E29"/>
</svg><svg fill="none" viewBox="0 0 60 60" id="icon-2" xmlns="http://www.w3.org/2000/svg">
    <path d="M50.88 16.48c0 1.52-.21 3.03-.63 4.5h4.92c2.67 0 4.83 2.12 4.83 4.75v14.73c0 3.66-1.05 7.25-3.02 10.35-1.97 3.1-4.79 5.59-8.13 7.19a20.026 20.026 0 0 1-10.76 1.82c-3.69-.4-7.19-1.82-10.1-4.09l-3.6 3.55a2.257 2.257 0 0 1-1.63.71c-.3.01-.61-.05-.89-.16a2.36 2.36 0 0 1-.76-.49c-.21-.22-.38-.47-.5-.75-.11-.28-.17-.58-.17-.88.01-.3.08-.6.2-.88.13-.27.31-.52.53-.73l3.6-3.55c-1.21-1.5-2.19-3.17-2.9-4.96a18.5 18.5 0 0 1-8.01-.16c-2.63-.64-5.07-1.84-7.17-3.53a18.103 18.103 0 0 1-4.94-6.22A17.782 17.782 0 0 1 0 29.97V16.52c0-2.5 2.05-4.54 4.59-4.54h13.5c1-3.45 3.1-6.49 6-8.65C27 1.17 30.53 0 34.17 0h12.34c2.41 0 4.37 1.93 4.37 4.31v12.17Zm-28.19-3.95c2.53.63 4.88 1.79 6.91 3.39 2.04 1.6 3.7 3.61 4.88 5.9 1.87-.56 3.81-.85 5.77-.84h5.19c.59-1.43.89-2.96.88-4.5V4.49H34.17c-2.52 0-4.98.77-7.04 2.21-2.05 1.45-3.6 3.48-4.44 5.83Zm8.55 39.99c2.26 1.65 4.94 2.64 7.74 2.87 2.8.23 5.61-.31 8.12-1.56 2.51-1.25 4.61-3.16 6.09-5.52 1.47-2.36 2.25-5.08 2.25-7.85V25.73c0-.03-.01-.07-.02-.1a.156.156 0 0 0-.06-.08.156.156 0 0 0-.08-.06.355.355 0 0 0-.1-.02H40.25c-2.81 0-5.57.77-7.96 2.22a15.068 15.068 0 0 0-5.6 6.01 14.812 14.812 0 0 0-1.58 8.01c.24 2.76 1.24 5.4 2.91 7.63l12.9-12.72c.21-.22.46-.4.74-.52.28-.12.58-.19.88-.19.31-.01.61.05.9.16.28.11.54.28.75.49.22.22.39.47.51.75.11.28.17.58.16.88 0 .3-.07.6-.2.88-.12.27-.3.52-.52.73l-12.9 12.72ZM20.5 40.46c0-1.78.24-3.5.69-5.13l-8.37-8.27c-.23-.21-.41-.45-.53-.73-.13-.28-.19-.57-.2-.88 0-.3.05-.6.17-.88.11-.28.28-.53.5-.74.21-.22.47-.39.76-.5.28-.11.58-.17.89-.16a2.257 2.257 0 0 1 1.63.71l7.04 6.95c1.72-2.99 4.21-5.47 7.21-7.2-1.16-2.16-2.9-3.97-5.03-5.23a13.791 13.791 0 0 0-7.04-1.92H4.58l-.02.01v.02l-.01.01v13.45a13.37 13.37 0 0 0 4.93 10.36c1.54 1.27 3.34 2.19 5.28 2.69 1.94.5 3.97.57 5.94.21-.13-.92-.2-1.84-.2-2.77Z" fill="#754E29"/>
</svg><svg fill="none" viewBox="0 0 60 60" id="icon-3" xmlns="http://www.w3.org/2000/svg">
    <path d="M30 0C13.45 0 0 13.45 0 30v12.42C0 45.5 2.69 48 6 48h3c.79 0 1.55-.32 2.12-.88.56-.57.88-1.33.88-2.12V29.57c0-.8-.32-1.56-.88-2.13-.57-.56-1.33-.87-2.12-.87H6.27C7.94 14.96 17.93 6 30 6c12.06 0 22.05 8.96 23.72 20.57H51c-.8 0-1.56.31-2.13.87-.56.57-.87 1.33-.87 2.13V48c0 3.3-2.7 6-6 6h-6v-3H24v9h18c6.61 0 12-5.39 12-12 3.3 0 6-2.5 6-5.58V30C60 13.45 46.54 0 30 0Z" fill="#754E29"/>
</svg><svg fill="none" viewBox="0 0 65 64" id="icon-4" xmlns="http://www.w3.org/2000/svg">
    <path d="M32 1.98c1.13 0 2.24.26 3.23.76l25.05 12.71c.52.26.95.65 1.26 1.12.3.46.46 1 .46 1.54v25.07a5.701 5.701 0 0 1-.93 3.08c-.6.94-1.47 1.71-2.5 2.24L35.23 60.34c-.99.5-2.1.76-3.23.76-1.14 0-2.25-.26-3.24-.76L5.42 48.5c-1.03-.53-1.9-1.3-2.5-2.24-.61-.93-.92-2-.92-3.08V18.11c0-.54.15-1.08.45-1.54.31-.47.74-.86 1.26-1.12L28.76 2.74c.99-.5 2.1-.76 3.24-.76Z" stroke="#754E29" stroke-width="4.167" stroke-linejoin="round"/>
    <path d="m2 16.32 30 15.22 30-15.22M32 31.54v30.44M17 23.93 47 8.71M12 32.54l10 5.09" stroke="#754E29" stroke-width="4.167" stroke-linejoin="round"/>
</svg><svg fill="none" viewBox="0 0 22 22" id="insta" xmlns="http://www.w3.org/2000/svg">
    <path d="M0 9.6c0-3.37 0-5.05.65-6.33A5.927 5.927 0 0 1 3.27.65C4.55 0 6.23 0 9.6 0h2.79c3.37 0 5.05 0 6.33.65 1.13.57 2.05 1.49 2.62 2.62C22 4.55 22 6.23 22 9.6v2.79c0 3.37 0 5.05-.66 6.33a5.927 5.927 0 0 1-2.62 2.62c-1.28.66-2.96.66-6.33.66H9.6c-3.37 0-5.05 0-6.33-.66a5.927 5.927 0 0 1-2.62-2.62C0 17.44 0 15.76 0 12.39V9.6ZM9.6 2h2.79c1.72 0 2.88 0 3.78.07.88.07 1.33.2 1.64.36a4 4 0 0 1 1.75 1.75c.16.31.29.76.36 1.64.07.9.08 2.06.08 3.78v2.79c0 1.72-.01 2.88-.08 3.78-.07.88-.2 1.33-.36 1.64a4 4 0 0 1-1.75 1.75c-.31.16-.76.29-1.64.36-.9.07-2.06.08-3.78.08H9.6c-1.72 0-2.88-.01-3.78-.08-.88-.07-1.33-.2-1.64-.36a4 4 0 0 1-1.75-1.75c-.16-.31-.29-.76-.36-1.64C2 15.27 2 14.11 2 12.39V9.6c0-1.72 0-2.88.07-3.78.07-.88.2-1.33.36-1.64a4 4 0 0 1 1.75-1.75c.31-.16.76-.29 1.64-.36C6.72 2 7.88 2 9.6 2ZM17 4c-.56 0-1 .44-1 1 0 .55.44 1 1 1 .55 0 1-.45 1-1 0-.56-.45-1-1-1Zm-6 13c3.31 0 6-2.69 6-6 0-3.32-2.69-6-6-6-3.32 0-6 2.68-6 6 0 3.31 2.68 6 6 6Zm0-2c2.2 0 4-1.8 4-4a3.999 3.999 0 1 0-4 4Z" fill="#0F0F0F" fill-rule="evenodd"/>
</svg><svg fill="none" viewBox="0 0 18 22" id="login" xmlns="http://www.w3.org/2000/svg">
    <path d="M14 5.5c0 3.03-2.24 5.5-5 5.5-2.77 0-5-2.47-5-5.5C4 2.46 6.23 0 9 0c2.76 0 5 2.46 5 5.5Zm-8 0c0 1.82 1.34 3.3 3 3.3 1.65 0 3-1.48 3-3.3 0-1.83-1.35-3.31-3-3.31-1.66 0-3 1.48-3 3.31Zm6.91 7.19a2.63 2.63 0 0 1 3.19.41c.38.39.83.89 1.19 1.43.35.52.71 1.22.71 1.97V19c0 1.65-1.35 3-3 3H3c-1.66 0-3-1.35-3-3v-2.5c0-.74.34-1.43.68-1.94.36-.54.8-1.04 1.18-1.42.87-.88 2.21-1.03 3.26-.39.1.06.2.12.29.18.48.3.85.53 1.31.71.52.2 1.2.36 2.28.36 1.08 0 1.75-.16 2.26-.38.41-.17.73-.36 1.14-.61.15-.1.32-.2.51-.32Zm1.77 1.83a.612.612 0 0 0-.75-.11c-.12.08-.25.15-.38.24-.45.27-.95.59-1.53.82-.79.33-1.72.53-3.02.53-1.28 0-2.21-.19-3.01-.5-.65-.25-1.19-.59-1.67-.89-.08-.05-.17-.11-.25-.16a.635.635 0 0 0-.79.09c-.33.34-.67.73-.93 1.12-.27.41-.35.69-.35.84V19c0 .55.44 1 1 1h12c.55 0 1-.45 1-1v-2.5c0-.15-.09-.44-.37-.86-.26-.39-.61-.79-.95-1.12Z" fill="#151618" fill-rule="evenodd"/>
</svg><svg fill="none" viewBox="0 0 74 105" id="logo" xmlns="http://www.w3.org/2000/svg">
    <path d="M46.07 1.28c-.69.74-2.32 2.28-3.63 3.47-4.35 3.93-5.23 5.33-5.35 8.54-.09 2.61.54 4.59 2.17 6.84.44.6.8 1.06.8 1 0-.04-.27-.6-.6-1.23-1.26-2.41-1.64-5.33-.95-7.41.65-1.95 1.59-3.12 4.79-5.95.67-.58 1.5-1.4 1.84-1.79l.65-.71-.09 3c-.05 2-.15 3.37-.32 4.09-.55 2.42-1.63 4.34-3.6 6.45-1.42 1.53-1.83 2.4-1.44 3.12.06.13.17.67.23 1.19l.09.94-.86.55c-2.89 1.83-4.93 4.48-5.76 7.49-.22.8-.31 1.58-.31 2.83-.02 2.65.49 4.85 1.78 7.63l.68 1.46-.24 1.15c-.24 1.16-.32 4.61-.11 5.52.08.35.17.43.54.43h.45l.11-1.85c.39-6.59 2.67-10.42 8.02-13.47 4.13-2.35 5.35-3.67 8.09-8.77 2.16-4.05 2.85-5.13 4.52-7.18l.94-1.16-1.33.55c-2.16.88-5.27 1.77-9.02 2.57-3.6.76-5.24 1.21-6.48 1.81-.39.19-.75.34-.8.34-.04 0-.06-.57-.01-1.29.07-1.53.09-1.56 2.41-3.88 1.26-1.24 1.79-1.9 2.22-2.72.96-1.82 1.04-2.35.93-5.86-.1-3.3.08-5.45.68-7.84.15-.61.27-1.13.25-1.14-.01-.02-.6.57-1.29 1.28Zm6.92 22.47c-3.01 5.3-5.12 7.55-9.93 10.66-.95.62-2.06 1.39-2.46 1.71-1.49 1.17-3.18 3.49-3.83 5.23-.15.41-.31.7-.36.63-.24-.36-.88-3.28-1.03-4.65-.5-4.51 1.26-8.46 4.95-11.11 2.11-1.54 4.03-2.24 7.9-2.91 1.66-.29 4.28-1.02 5.41-1.49.25-.1.46-.17.49-.16.02.01-.49.96-1.14 2.09ZM19.68 4.86c.89 3.23 1.16 7.46.73 11.42-.54 4.94-.09 6.43 3.1 10.49.86 1.09 1.83 2.51 2.18 3.15.97 1.88 1.49 4.54 1.5 7.76v1.33l-.36-.14c-.83-.3-2.34-.43-6.12-.5-2.21-.05-4.49-.15-5.08-.2-.56-.08-1.05-.1-1.07-.09-.03.01.27.24.67.52 1.69 1.16 3.39 2.66 5.36 4.75 1.16 1.21 2.55 2.56 3.1 2.98 2.35 1.79 5.05 2.84 8.32 3.21 1.34.16.8-.33-1.46-1.27-3.61-1.52-5.42-2.76-8.19-5.58-1.04-1.07-2.31-2.2-2.8-2.53l-.9-.57h1.76c4.62 0 7.23.86 9.46 3.11a8.91 8.91 0 0 1 2.29 3.96c.12.47.26.89.3.93.15.13.11-1.69-.06-2.7-.34-2.08-2.07-4.37-4.05-5.38l-.87-.43v-2.36c0-4.71-.43-6.33-2.7-10-3-4.88-3.49-6.81-3.4-13.56.03-2.1.08-3.82.09-3.81 0 .02.31.42.67.89.37.48 1.7 1.9 2.97 3.16 3.07 3.06 4.25 4.82 4.98 7.48.82 2.91.15 6.98-1.79 10.92-.36.73-.63 1.33-.61 1.33.03 0 .28-.34.58-.78 2.34-3.38 3.52-7.2 3.34-10.77-.1-1.95-.51-3.47-1.36-5.17-.86-1.75-1.86-2.98-4.75-5.86-2.25-2.26-3.81-3.92-5.43-5.76l-.63-.72.23.79Z" fill="#151618"/>
    <path d="M46.57 40.03c-3.43.7-5.76 3.61-5.77 7.18 0 .71-.03.77-.47.91-.78.25-.21.38 2.21.48 3.46.15 5.58-.24 7.38-1.35.49-.3 1.74-1.26 2.78-2.13 2.1-1.74 3.18-2.48 4.96-3.38l1.18-.6-1.44-.1c-.78-.04-2.18-.22-3.11-.38-.93-.16-2.4-.42-3.28-.56-1.83-.31-3.15-.34-4.44-.07Zm4.96 1.78c.73.17 1.87.36 2.5.4l1.18.1-1.64 1.26c-2.5 1.91-4.15 2.78-6.27 3.29-1.08.27-5.92.97-6.02.87-.14-.13.3-1.45.83-2.49.91-1.81 2.64-3.11 4.82-3.64 1.11-.27 2.85-.19 4.6.21ZM13.05 55.64c-.18 7.74.24 10.37 2.27 14.27 1.07 2.04 2.8 4.44 4.03 5.56.3.27.54.53.54.57 0 .06-3.74.08-8.3.05-4.57-.03-8.47 0-8.66.04-.18.04-.42.25-.51.43-.14.31-.12.41.1.65.27.29.44.29 33.95.29 22.94 0 33.77-.04 33.98-.14.39-.21.39-.96 0-1.16-.2-.08-3.3-.14-9.04-.14h-8.74l.92-1.05c2.61-2.95 4.31-6.2 5.43-10.33.31-1.14.34-1.63.39-7.39l.07-6.15H13.16l-.11 4.5ZM6.81 79.45c5.08 2.29 12.92 4.16 20.22 4.82 1.3.13 1.88.23 1.66.29-.32.08-.33.09-.08.11.17.01 1.19.08 2.26.17 5.5.38 17.29.15 16.96-.34-.05-.07-.03-.1.06-.06.07.04.34.03.58-.04.43-.11.43-.11-.16-.14-.36-.02.4-.19 1.88-.43 4.58-.73 8.36-1.62 11.46-2.7 1.77-.62 5.21-2.03 5.45-2.26.08-.07-11.66-.13-30.82-.11l-30.97.01 1.5.68Z" fill="#151618"/>
    <path d="M65.18 100.54q.07-.01.1-.01.06 0 .15.01h.19q.09 0 .17.01h.09q.17 0 .31.05.14.04.29.04h.05q.02-.01.09-.03.07-.01.15-.03l.15-.02q.07-.01.1-.01.3-.03.57-.03.27 0 .58-.11h.1q0 .01.05.05l.05.03q.01 0 .06.01l.11.02.12.01q.07.01.09.02h.05q.1 0 .18-.04.04-.03.07-.06v-.01q.1-.1.15-.24.05-.15.07-.31.02-.16.03-.27v-1.03q0-.03.03-.1t.03-.1v-.07q0-.12-.03-.22-.03-.09-.03-.21 0-.1.03-.19v-.02q.03-.09.03-.19v-.04l-.11-.11q-.07-.07-.1-.08-.03 0-.06.02-.01.02-.04.03-.03.02-.04.03-.01.02-.1.09-.08.07-.1.11-.01.01-.03.07-.02.06-.05.12-.03.07-.06.12-.03.05-.04.06-.01.01-.05.06l-.07.09q-.05.04-.09.08-.04.05-.05.06 0 .01-.02.09-.03.08-.04.1 0 .02-.06.1t-.08.1q-.01.02-.05.12l-.09.2q-.05.11-.1.21-.05.1-.07.12l-.11.18q-.06.1-.14.2-.08.09-.17.16-.09.08-.18.1h-1.67q-.01 0-.06.02l-.12.02q-.07.02-.12.03-.05.01-.06.01h-.64q-.11 0-.22-.01 0-.01-.01-.01-.1-.01-.2-.06h-.37q-.26-.01-.55-.01l-.56-.02q-.26-.01-.36-.01-.05-.01-.15-.02-.09-.02-.19-.02-.09 0-.17-.01-.07-.01-.08-.03-.02-.01-.06-.04-.05-.04-.09-.08-.04-.04-.07-.08-.04-.04-.04-.05 0-.05-.01-.16v-.15q0-.36.03-.69.04-.32.04-.67 0-.04-.01-.07-.01-.04-.05-.11 0-.06-.02-.22l-.02-.35-.02-.34q-.01-.15-.01-.22v-.12q.01-.09.04-.29.03-.2.07-.41.03-.21.06-.39l.04-.24q.02-.13.09-.22.06-.08.16-.13.12-.07.25-.09.09-.02.18-.02h.09q.02 0 .08.03.06.04.07.07h.13l.19.02q.1 0 .2.01.09.01.14.01.05.02.21.02h.68q.15 0 .22-.02.11.02.19.09.05.04.09.1.08.16.12.39.03.24.03.51t.01.53q.02.26.08.48.05.2.17.32l.04.02q.02.05.1.1.08.04.1.04.02 0 .09-.04.07-.05.08-.1.1-.15.13-.27.03-.12.03-.27v-.1q-.01-.06-.01-.13v-.13q-.01-.06-.01-.1v-.12q-.01-.09-.03-.2l-.02-.21q-.01-.09-.01-.12 0-.02.02-.07.01-.04.02-.1.02-.06.03-.1l.01-.05q.01-.02.03-.11.02-.08.02-.15 0-.15-.01-.29-.01-.15-.01-.17.01-.06.02-.23.01-.16.03-.39.02-.22.04-.47.01-.25.03-.47.02-.22.03-.39.01-.16.01-.22v-.08q-.01-.06-.01-.13 0-.04.01-.08v-.04l.04-.13q.01-.03.01-.1 0-.2-.06-.29-.06-.09-.26-.09-.17 0-.25.07l-.03.03q-.06.06-.09.15-.03.11-.04.24-.01.14-.04.25l-.04.04-.04.08q-.03.04-.05.08-.02.04-.02.05-.02.02-.04.12-.02.1-.03.22l-.04.21q-.01.11-.02.13-.06.15-.12.38-.06.22-.19.33-.07 0-.22.01l-.34.02q-.18 0-.34.01-.17.01-.23.01h-.78q-.01 0-.07.01-.05.01-.12.03l-.14.02q-.06.02-.08.02h-.44q-.04 0-.08-.05-.05-.05-.07-.08v-.06q0-.31.04-.6t.04-.57q0-.41-.04-.81-.04-.4-.04-.79 0-.13.01-.25.02-.14.06-.27.07-.26.08-.54V88.8q0-.02.04-.04t.08-.02h.52q.02 0 .14-.01.12-.02.26-.03.13-.01.25-.03.12-.01.16-.01h.25q.02 0 .09.01.07.02.15.03.08.01.14.03.07.01.08.01h.46q.07.01.27.02t.42.03l.42.02q.2.02.27.02.14.05.22.13l.14.16q.07.08.13.17.06.09.16.16.02.02.08.03.05.01.06.03.01.04.06.08l.06.06q.02.03.04.05.13.17.24.37.12.22.24.4l.04.04q.04.03.07.07l.07.06q.03.03.03.04.05.08.07.15.03.07.05.14.03.06.07.12.05.07.14.13h.06q.08 0 .15-.02.01-.01.02-.01.06-.03.1-.1v-.48q0-.04-.01-.16l-.02-.23-.02-.24q-.01-.11-.01-.15-.02-.12-.04-.35-.02-.23-.06-.47-.03-.24-.09-.43-.06-.2-.15-.25-.04-.04-.12-.08-.07-.05-.15-.09-.07-.04-.13-.06-.06-.03-.07-.03-.01-.01-.12-.02-.1-.01-.24-.02l-.27-.02q-.14-.01-.21-.02h-1.04q-.03 0-.13-.01t-.22-.01q-.11 0-.21-.01-.09-.01-.12-.01h-.11q-.05 0-.14.01-.08.01-.18.01-.09 0-.17.01-.08.01-.11.01H61.9q-.35 0-.7.01t-.72.01q-.45 0-.89-.01-.44-.02-.88-.05-.01 0-.07-.04-.02-.01-.05-.04h-.04q-.27 0-.43.04-.17.04-.38.16-.02 0-.03.01l-.02.02-.04.01q0 .18.09.3.02.03.05.05.08.08.19.13.14.07.3.1.17.03.31.05.05.01.18.02t.27.01q.15 0 .28.01.13.01.19.02.09.07.14.16.01.02.02.05l.02.04q.04.11.05.22.02.14.03.28.01.15.05.28 0 .08-.01.27t-.01.42l-.02.42q-.01.2-.02.28 0 .02-.01.13-.01.1-.02.23 0 .12-.01.23-.01.11-.01.14v.06q0 .68.02 1.36.03.69.03 1.39v.68q-.01.15-.01.37l-.02.44q0 .23-.01.44 0 .21-.01.37v.2q0 .55-.02 1.06t-.12 1.03q0 .02-.02.08l-.04.08q-.07.05-.16.15-.1.1-.12.1h-.83q-.08 0-.16.05-.09.05-.16.12-.08.07-.13.15-.04.09-.04.16-.01.01-.01.02h.01v.01q0 .01.03.01.09.24.21.29.12.04.35.04h.04q.03 0 .05-.01h.06q.02 0 .09-.01.06-.01.14-.02.07 0 .14-.01.06-.01.09-.01.07 0 .28-.01.2-.01.43-.01.23 0 .44.01.2.01.29.01.09-.04.14-.05.06-.01.15-.01.12 0 .22.02.09.02.22.06h2.3l1.08.06.22-.08h.05q.05-.01.12-.01h.13Zm-59.56-.09h.2q.91 0 1.81.12.05 0 .09.01.31.04.59.09.27.05.6.05h.01q.18-.12.29-.23.02-.01.03-.03.09-.1.09-.28 0-.08-.03-.16-.02-.07-.05-.13-.02-.02-.04-.05-.08-.09-.21-.14-.07 0-.22-.01l-.32-.02-.32-.02q-.16 0-.23-.01-.15-.01-.31-.03-.16-.02-.29-.07-.1-.04-.16-.1l-.06-.06q-.08-.1-.08-.29 0-.61.03-1.23.03-.61.03-1.22 0-.5-.03-.98t-.03-.96q0-.45.06-.88.07-.42.07-.87 0-.12.01-.47t.01-.74q0-.4-.01-.74-.01-.35-.01-.49.01-.02.02-.09.01-.06.01-.13.01-.07.01-.14.01-.07.02-.09 0-.01.05-.11.04-.1.08-.17.01-.04.07-.12.04-.03.07-.07 0-.02.14-.05.13-.03.2-.03h.84q.04 0 .15.04.11.04.12.04.26.04.48.04.22 0 .45.09.36.16.7.39.17.12.29.27.12.15.19.34.06.12.11.26.05.15.12.28.04.08.08.15l.08.1q.05.06.11.11.05.04.11.06.02.02.04.03.03.03.06.03.04 0 .09-.03.05-.02.08-.09.03-.24.05-.42.01-.18.01-.41v-.19q-.01-.05-.03-.11l-.02-.1q-.01-.04-.01-.06-.01-.11-.05-.4-.03-.28-.07-.59-.03-.32-.05-.61-.03-.28-.04-.39-.06-.16-.18-.23-.08-.04-.18-.04h-.1q-.15.05-.31.19-.15.13-.31.26-.16.14-.32.24-.15.1-.3.1l-1.59-.02q-.4 0-.66.01-.27 0-.44.01-.17.01-.27.03-.1.02-.17.04-.04 0-.15-.01l-.24-.02-.24-.02q-.11-.02-.15-.02-.01-.01-.07-.01-.05-.01-.12-.01h-.24q-.23 0-.42.05-.19.04-.42.04h-.28q-.01 0-.05-.01l-.08-.02q-.04-.01-.07-.02l-.04-.02q-.36-.06-.73-.08-.37-.01-.74-.01h-.41q-.2.01-.39.01l-.06-.02q-.07-.04-.13-.11l-.16-.2q-.08-.1-.17-.18-.01-.01-.02-.01-.09-.07-.22-.07-.06 0-.11.03-.03.01-.06.03l-.04.04q-.04.04-.08.1-.04.08-.08.17-.03.09-.05.16 0 .02-.03.1t-.07.17q-.03.1-.07.18-.03.08-.03.1 0 .02-.02.11-.02.08-.04.18-.02.1-.04.19t-.02.11q-.02.03-.05.14-.03.1-.06.22-.04.13-.07.24-.03.11-.04.13v.17q-.01.05-.01.11v.18q0 .06.01.13v.2q.03.08.07.14l.01.01q.04.05.14.05.08 0 .14-.03.05-.03.1-.07.1-.1.17-.22.07-.13.12-.27.06-.13.12-.21.01-.01.1-.12.09-.1.21-.24.11-.14.23-.28.12-.14.19-.21l.07-.07q.05-.06.05-.08.12-.07.24-.1.03-.01.06-.01.16-.03.29-.08.07.01.23.01h.68q.17 0 .22-.01.02 0 .09-.01.07-.01.14-.03.08-.01.14-.02.07-.02.08-.02.05 0 .16.01l.23.02q.12.02.23.03.11.01.15.02.12.12.2.23.07.12.12.3 0 .11-.01.41v.62q0 .33-.01.63v.44q0 .37.01.74t.01.75q0 .92-.01 1.84t-.06 1.84q0 .02-.01.13-.02.1-.03.22-.02.11-.03.21-.01.1-.01.12v.98q0 .13-.04.26-.02.11-.07.2-.01.01-.01.02-.05.05-.11.08-.07.04-.16.06-.1.02-.18.02-.09.01-.15.01-.08.02-.3.03-.22.01-.46.03l-.47.02q-.22.01-.3.02-.02 0-.03.01-.08.05-.12.14-.06.12-.06.23 0 .11.06.18.02.03.04.05.1.08.23.12.13.04.28.04.14.01.24.01.46 0 .91-.01.46-.02.91-.06.01 0 .05-.01t.09-.02q.04-.02.08-.02.04-.01.05-.01Zm34.8-7.13q.05.1.08.27-.01.11-.02.3v3.16q.01.19.02.29 0 .48.07.97.07.48.26.91.05.12.13.21.07.09.15.17l.16.16q.08.09.15.2l.06.05q.05.05.16.12.1.08.21.16.11.08.2.13.09.06.11.07.08.04.16.07.01 0 .03.01.1.02.2.03.1.01.2.03.07.01.13.03.04.01.08.03h.52q.17 0 .3-.02.13-.01.26-.03.12-.03.25-.05.12-.02.29-.04h.26q.01-.01.07-.05.06-.04.13-.09.08-.05.15-.1l.1-.07q.29-.25.54-.49.17-.16.3-.36.06-.08.1-.17.02-.03.07-.13.06-.09.11-.21.06-.11.11-.21.04-.1.06-.11.01-.02.07-.11.06-.1.06-.12.01 0 .02-.06l.02-.12q0-.07.01-.13.01-.07.03-.09 0-.02.02-.08.01-.07.04-.15.02-.08.03-.14.02-.07.03-.09.03-.09.03-.17l.02-.16q0-.09.02-.17.02-.08.06-.17.01-.1.02-.34l.02-.5q.02-.27.02-.51.01-.23.02-.33v-.73q0-.01.03-.1.03-.08.03-.11v-.15q0-.14-.03-.25-.03-.1-.03-.24 0-.08.02-.15.03-.08.07-.14.05-.08.12-.14.05-.03.11-.06.12-.05.27-.07.14-.03.27-.08.11-.04.19-.12l.02-.02q.08-.09.08-.27v-.09q-.01-.07-.02-.09-.12-.08-.28-.11-.17-.02-.35-.02h-.22q-.11.01-.19.01h-.55q-.09 0-.23.03-.13.03-.2.03-.15 0-.31-.02-.16-.01-.32-.01-.22 0-.42.04-.06.01-.12.04-.13.05-.22.17l-.02.04q-.01.03-.01.04v.08l.03.06q.15.2.33.26.18.06.4.1.03.02.08.02.03 0 .06-.01t.08-.01q.05 0 .11.07.02 0 .04.04l.02.1q.04.03.09.16.05.13.07.17 0 .08.01.27l.04.4q.02.21.04.39.02.19.02.26v.83l-.02.1q0 .06-.01.11t-.01.06q-.03.29-.03.6-.01.3-.03.61-.02.32-.07.62-.05.29-.16.57 0 .01-.02.08-.01.06-.04.12-.02.07-.04.13t-.03.08q-.12.18-.3.39-.19.21-.42.29l-.01.01q-.04 0-.12.02-.08.01-.15.03-.1.02-.19.05h-.14q-.01 0-.06.02-.04.02-.1.04-.06.03-.11.06-.05.02-.06.03h-.13q-.09 0-.17-.03-.08-.02-.15-.05-.07-.03-.15-.06-.08-.04-.18-.04 0-.01-.06-.01-.04 0-.1-.03-.06-.03-.08-.03-.11-.03-.23-.13-.11-.09-.23-.22-.11-.13-.21-.26-.09-.13-.12-.22-.04-.06-.07-.17-.04-.1-.07-.22l-.06-.22q-.02-.11-.03-.18 0-.05-.01-.15 0-.11-.01-.23-.01-.11-.01-.22-.01-.11-.02-.16v-.09q-.01-.07-.03-.14l-.02-.15q-.02-.07-.02-.09v-.19q.01-.03.04-.14.03-.1.03-.15v-.77q0-.03.01-.11.01-.07.02-.17 0-.09.01-.17.01-.08.01-.1.02-.01.03-.06v-.08q0-.12-.04-.21-.04-.08-.04-.23 0-.11.01-.26.01-.15.04-.3.03-.16.09-.29.05-.14.14-.23.08-.1.22-.16.15-.06.29-.12.15-.06.25-.14.04-.03.06-.06.05-.07.05-.17 0-.14-.07-.22-.04-.04-.1-.07-.18-.07-.38-.07h-.06q-.02 0-.1.03t-.1.03q-.17.02-.31.03l-.28.02q-.14.01-.29.01h-.65q-.26-.05-.41-.07-.16-.02-.31-.02-.1 0-.21.01l-.2.02-.12.03q-.08.02-.1.03l-.01.01q-.02.02-.03.07v.08q0 .05.03.16.02.11.08.17.02.02.12.04.1.02.2.06l.26.14q.11.05.18.12.07.06.11.16Zm-27.8 7.13q.05.07.05.1.05.02.16.04.1.02.22.05.11.02.21.03.1.02.15.02.04 0 .15-.03.1-.04.14-.06h.07q.05.01.11.01t.06-.01q.03 0 .09-.01.06 0 .13-.01.06 0 .12-.01t.09-.02h3.33q.03 0 .19-.01.17-.01.35-.01.18-.01.34-.03.15-.01.2-.03h.31q.07.02.24.03l.35.02q.19.01.35.01.16.01.22.02h.04q.1-.02.2-.09.11-.09.19-.22.05-.1.09-.21.02-.03.03-.07.04-.15.04-.26v-.03q0-.03-.01-.2 0-.17-.01-.36 0-.18-.01-.35-.01-.17-.01-.21v-.19q0-.07-.01-.13-.01-.04-.02-.07-.01-.04-.03-.06-.04-.04-.13-.04h-.02v.01q-.02.02-.04.03l-.02.03q-.01.02-.04.07t-.07.11q-.03.05-.07.1-.03.05-.03.08l-.05.05q-.03.04-.08.08-.04.04-.09.07-.04.03-.05.03-.01.03-.06.11-.05.09-.09.11-.07.15-.11.3-.05.15-.14.29-.03.05-.06.08-.02.02-.05.02-.02.01-.06.01l-.11.03-.04.04q-.03.03-.08.07l-.09.07q-.05.03-.07.03h-.59q-.01 0-.07.02l-.13.02q-.07.02-.13.03-.06.01-.08.01h-1.33q-.02-.02-.07-.05-.04-.03-.06-.03-.22-.06-.37-.08-.15-.03-.24-.08l-.04-.02q-.07-.06-.1-.16-.05-.12-.05-.39 0-.51.04-.99.03-.48.03-1v-.3l.13-.14h.05q.04-.01.1-.01h.11q.06-.01.09-.01.04 0 .12.01h.16q.09 0 .15.01h.1q.03 0 .14.01.11.02.24.04.12.02.24.05.11.02.17.04.06.04.12.07.07.03.1.06v.14l.02.21.02.2q.02.09.03.12.01.08.04.17.04.09.09.18.05.09.11.15.05.04.11.05h.02q.11 0 .18-.03.08-.04.18-.11 0-.02.01-.09l.02-.15q0-.07.01-.13.01-.07.02-.08v-.76q0-.07.01-.25 0-.18.01-.38l.02-.39q.01-.18.02-.26.04-.07.06-.15.02-.07.02-.15v-.33q0-.11-.03-.2-.01-.03-.03-.05-.04-.05-.13-.05-.11 0-.23.03-.08.02-.15.07-.01.02-.03.04-.02.01-.03.13-.02.12-.04.16-.01 0-.05.09t-.09.21l-.11.24q-.05.12-.08.18-.01.01-.03.04l-.04.08q-.03.04-.05.09-.02.04-.02.06-.32.04-.55.05-.22.01-.52.01h-.48q-.1-.03-.18-.1-.09-.08-.15-.16-.01-.04-.02-.15l-.02-.23-.02-.22q-.01-.11-.01-.15v-.11q0-.09.02-.31t.04-.47l.04-.46q.03-.22.03-.32.05-.11.1-.23.05-.12.11-.22.02-.03.04-.05.06-.06.13-.11.11-.06.27-.06h.02q.03 0 .15.01.12 0 .26.01.14 0 .26.01.11.01.14.02h.03q.02 0 .09-.03.06-.02.09-.02h.05q.01.01.08.03.07.02.16.04.08.02.15.04.07.01.1.01 0 .01.05.02l.1.02q.06.02.11.03l.05.01h.01q.04 0 .07.07.02.02.08.1t.12.17.12.17q.06.08.08.1l.1.09q.09.09.11.12.06.09.1.19.02.05.03.09l.1.3q.03.1.08.19.02.05.05.1.08.13.23.24v.01q.01.01.03.01h.03q.01 0 .01-.01.01 0 .01-.01.02 0 .06-.05.04-.05.06-.07l.03-.21q.02-.15.05-.3l.04-.29q.01-.14.01-.19v-1.02q-.05-.2-.16-.34-.01 0-.01-.01-.12-.12-.37-.12h-4.13q-.05-.01-.15-.02l-.23-.02-.22-.02q-.11 0-.15-.01h-.23q-.41 0-.82.04-.4.04-.82.03-.04.1-.04.16-.01.07-.01.14 0 .17.09.25.03.04.08.05.17.07.41.07h.36q.15 0 .27.01.13.02.23.08.01.01.03.02.07.05.13.14.06.11.06.28v3.83l-.03.1q-.02.07-.03.15-.01.09-.02.16t-.01.09v.07q0 .3.01.58.02.28.02.58v.15q0 .12-.03.25-.01.07-.04.12-.04.05-.1.08l-.04.02q-.04.02-.09.03l-.1.03q-.04.01-.07.01h-.62q-.05 0-.15.02-.1.02-.12.04-.02.03-.09.09-.07.06-.14.14-.08.07-.14.14-.06.07-.08.11v.04q.01.04.06.11Zm41.55-6.92-.03.03q-.05.06-.11.21-.07.15-.15.31-.08.16-.17.31-.09.16-.18.23-.22.17-.36.26-.13.09-.24.09-.03 0-.06-.01t-.06-.04q-.05-.06-.11-.14-.02-.05-.12-.21-.1-.17-.21-.37-.11-.2-.2-.37-.09-.17-.12-.21-.03-.05-.09-.16-.05-.11-.05-.18 0-.16.07-.21.07-.05.16-.09.03-.01.06-.03.05-.03.1-.07.07-.06.07-.24t-.09-.24q0-.01-.01-.01-.1-.05-.31-.05-.56 0-1.11.04-.55.03-1.11.03h-.04q-.02 0-.06-.01-.04 0-.09-.01-.05-.01-.09-.02l-.04-.01h-.03q-.1 0-.14.03-.04.02-.04.12 0 .07.01.14 0 .01.01.02.01.05.07.09.12.11.26.2.13.09.26.17l.25.19q.12.1.23.24.12.14.2.3.04.06.07.13.1.24.28.46.02.03.06.05.01.02.02.03.02 0 .02.01l.02.02q.01.01.02.07.02.05.03.1.02.06.04.1.02.05.03.06.05.06.11.21.07.15.11.22 0 .01.04.08.04.06.09.14.04.07.09.14.04.07.05.1.1.25.23.45.12.2.37.35v.07q0 .06.01.12 0 .06.01.12v.16q-.01.06-.01.12-.01.06-.01.11v.05l-.04.05q-.03.05-.07.11-.03.06-.08.13t-.08.1q-.01.02-.07.08-.06.05-.08.08-.16.3-.32.58-.16.29-.39.55-.04.05-.15.15-.11.11-.23.22-.12.12-.23.22-.1.1-.14.13l-.08.06q-.09.05-.2.09-.15.06-.29.12l-.14.06q-.08.04-.14.08-.04.02-.07.04-.1.07-.17.16v.07q0 .03.01.08 0 .03.02.04.02.02.06.02h2.46q.08-.02.14-.06.06-.04.06-.15-.03-.04-.06-.07-.07-.07-.17-.11-.14-.06-.28-.1-.14-.04-.25-.09-.05-.02-.07-.06-.04-.05-.04-.11v-.07q.02-.01.04-.06.03-.05.04-.06.03-.03.14-.2.11-.17.24-.36.12-.19.23-.36.11-.16.13-.2.05-.1.11-.23.05-.13.12-.25.07-.12.17-.21l.04-.02q.08-.06.2-.06.08 0 .19.13.1.14.22.34t.23.45q.11.24.2.47.1.24.15.43.05.19.05.28 0 .16-.07.22-.06.06-.14.1-.04.02-.07.05-.04.02-.07.05-.06.05-.06.19v.06q.03.02.14.04.11.02.15.02.03 0 .16.01.14.01.29.01l.29.02q.14.01.18.01.01.01.07.03.05.01.11.03l.11.02q.05.01.06.01h.05q.03 0 .17-.01l.31-.02q.16-.02.3-.03.14-.02.17-.03h.15q.08.01.16.01.14 0 .25-.04.03-.02.04-.03.07-.06.07-.2 0-.11-.05-.19-.02-.01-.03-.02-.08-.08-.2-.12-.12-.05-.25-.09-.12-.04-.2-.1-.22-.18-.38-.38-.14-.17-.26-.36-.02-.03-.04-.07-.13-.23-.25-.47l-.22-.48-.21-.4-.07-.11q-.06-.09-.13-.19t-.13-.19q-.06-.08-.07-.1l-.04-.1q-.04-.07-.1-.17l-.1-.2q-.05-.1-.09-.15-.09-.18-.18-.38-.1-.2-.1-.39 0-.09.02-.14.02-.05.06-.11.07-.14.17-.29.11-.15.22-.25.03-.02.06-.05.03-.02.05-.05.04-.07.08-.11.03-.03.1-.11t.15-.18.15-.18q.07-.08.1-.11.27-.33.58-.57.3-.23.69-.37.13-.04.29-.06.16-.03.31-.08.15-.04.25-.14l.02-.02q.08-.1.08-.26 0-.13-.04-.2-.03-.05-.06-.07-.03-.02-.06-.03-.07-.03-.18-.03-.1-.01-.21-.01-.15 0-.3.02-.15.01-.31.08h-1.54q-.02 0-.12.02l-.15.03q-.04.02-.1.04-.06.02-.11.04t-.09.05q-.02.02-.03.04v.03q0 .06.02.1.04.06.11.09.14.04.3.08.17.04.3.12.05.02.08.06.06.07.06.2 0 .08-.03.17-.02.07-.06.1Zm-23.08 7.04q.08-.02.1-.02.01 0 .09.02.07.01.17.03.09.01.17.03.08.01.1.01h.13q.08-.01.15-.04l.11-.03q.1-.02.11-.02h.59q.04 0 .17-.01.14-.01.29-.01l.28-.02q.13-.01.18-.02h.14q.01.01.05.02t.1.02q.05 0 .09.01.05.01.06.01.08.01.22.02.15.01.3.01.15.01.28.01.13.01.17.01l.19.01h2.5q.21-.01.29-.01.23-.06.33-.13.08-.05.12-.12.01-.03.02-.05.04-.11.04-.25 0-.15.02-.35 0-.02.03-.09.02-.08.02-.1l.01-.04v-.58l-.02-.17-.02-.14q-.04-.15-.12-.26-.03-.05-.08-.07-.06-.04-.14-.04-.07 0-.08.01-.01.01-.05.06-.03.02-.08.1-.05.07-.12.15-.06.09-.12.16-.06.08-.09.11 0 .02-.05.11-.06.09-.08.1l-.04.05q-.01 0-.04.01-.03.02-.06.05-.04.03-.07.05-.03.02-.03.03-.01.01-.03.04-.02.04-.03.08l-.04.08-.02.04q-.02.04-.08.1-.06.06-.12.13-.07.06-.12.11-.05.05-.07.06-.01.01-.07.02-.06.01-.14.02l-.16.02q-.09.01-.12.01h-1.49q-.25 0-.53.04t-.53.08h-.05q-.06 0-.11-.02-.09-.03-.15-.12-.07-.1-.09-.2-.01-.06-.01-.11v-.08q0-.03.01-.06 0-.02.03-.06.03-.04.03-.06 0-.02-.03-.09-.03-.08-.03-.09v-.13q0-.01.01-.09t.02-.18.02-.18q.01-.09.01-.12V96.6q0-.03.01-.13l.02-.2q.02-.11.03-.21l.01-.1v-1.12q0-.41.03-.79.02-.39.1-.78.01-.05.04-.09.01-.02.02-.03.02-.02.05-.04.03-.02.07-.02.03 0 .14-.01.12-.02.25-.03.13-.01.25-.03.12-.01.15-.01.1-.02.25-.1t.22-.13q0-.02.02-.06.01-.05.01-.08 0-.12-.05-.19l-.05-.05q-.05-.03-.1-.05-.09-.03-.19-.04-.11-.01-.21-.01h-.03q-.02.01-.03.01h-.04q-.01 0-.06.01-.04 0-.1.01l-.11.02q-.05.01-.06.01h-.44q-.01 0-.07.01l-.12.02-.13.02q-.06.01-.08.02h-.18q-.05-.01-.2-.02l-.34-.02-.34-.02q-.16-.01-.2-.01-.03 0-.11.01l-.18.02q-.09.01-.17.01-.08.01-.11.01-.09.02-.27-.01-.17-.04-.3-.04-.06 0-.14.03-.06.02-.11.05-.02.02-.05.03-.07.06-.12.12-.03.05-.05.09v.06q0 .09.04.15.03.03.06.05.1.07.26.1.16.02.35.03.18 0 .36.03.17.02.29.08.07.03.11.08.04.05.07.11 0 .02.01.08.01.05.02.13l.02.14q.02.07.02.11v1.22q0 .16-.02.4l-.02.49q-.02.23-.03.41v.18l-.05.11q0 .06.01.18v.51q-.01.12-.01.16 0 .11-.01.35-.01.25-.01.51-.01.27-.02.49-.01.23-.01.3 0 .02-.01.09-.01.07-.02.16-.01.08-.03.16-.01.07-.01.1 0 .02-.01.05l-.02.06q-.01.04-.01.08-.05.05-.28.07l-.48.02q-.26.02-.46.05-.2.04-.22.12v.14q0 .13.06.2.02.03.04.05.04.03.09.05.08.04.19.05.11.01.23.01h.03q.01 0 .1-.03Zm-8.89-.06h.08q.03 0 .14.01.12.01.26.03.14.01.25.02.12.01.15.01h.87q.03.01.12.02.09 0 .18.01l.19.02q.09.01.13.01.13-.03.2-.12t.07-.24q0-.12-.06-.2-.01-.02-.03-.03-.08-.08-.22-.12-.13-.04-.28-.06-.15-.02-.28-.06-.13-.03-.22-.1-.02-.01-.03-.03-.06-.06-.06-.17 0-.25.02-.48 0-.05.01-.09.03-.19.11-.37.03-.01.09-.1.06-.09.06-.11 0-.01.02-.06.02-.06.04-.13.02-.06.05-.12.02-.06.03-.06 0-.04.07-.1.06 0 .12.01t.12.01q.31 0 .59-.05.27-.04.59-.04h.18q.16 0 .33.03.08.01.15.05.07.05.12.13.03.04.07.13.04.08.08.17l.07.16q.04.07.05.08.01.02.04.13t.06.25l.06.28q.03.14.04.22l.02.06-.02.07q-.08.13-.2.18-.02.01-.05.02-.15.05-.3.09-.16.03-.3.09l-.04.02q-.11.06-.18.2v.1q0 .1.01.14.02.05.12.09.14 0 .49.01.36.01.76.03l.75.02q.35.01.49.01h.36q.13 0 .27-.01t.25-.05q.1-.04.17-.11l.02-.02q.08-.09.08-.23 0-.05-.02-.08-.03-.09-.13-.15-.15-.09-.35-.16-.2-.07-.39-.14t-.26-.18q-.15-.2-.22-.46-.07-.27-.11-.5-.01 0-.03-.04-.02-.05-.05-.11-.03-.06-.04-.1-.02-.05-.02-.06-.01-.02-.02-.07l-.02-.1q-.01-.06-.02-.1-.01-.05-.01-.07l-.04-.08q-.02-.06-.06-.13-.03-.07-.06-.12l-.04-.08q-.07-.17-.09-.28-.01-.12-.05-.33-.06-.23-.16-.47-.11-.23-.18-.47-.03-.1-.09-.28-.05-.18-.1-.37l-.09-.32q-.04-.14-.05-.17 0-.02-.02-.11t-.04-.2q-.02-.12-.04-.22-.02-.09-.02-.12 0-.01-.02-.07-.02-.06-.04-.14l-.05-.16-.03-.12q-.02-.05-.06-.2-.03-.14-.08-.3-.05-.15-.12-.28-.06-.13-.15-.16h-.04q-.03 0-.06.03l-.02.02q-.03.03-.06.07-.03.05-.06.09-.02.05-.03.06l-.09.09q-.05.07-.12.14l-.19.18q-.01.01-.06.04-.06.03-.13.06-.07.04-.14.06l-.08.04q-.04.02-.11.12-.07.1-.07.16 0 .01.03.09.02.08.02.12v.12q0 .09-.04.19l-.09.2-.11.18q-.06.09-.1.16-.06.18-.12.31-.07.12-.14.28-.02.03-.07.13-.04.11-.1.22l-.11.21q-.05.1-.05.13 0 .01-.04.1-.03.09-.06.19-.04.1-.07.19-.04.1-.05.11-.01.06-.06.18-.05.13-.08.16-.21.49-.44.98-.24.49-.48.96-.02.02-.04.11-.02.08-.02.1 0 .03-.04.08-.01.03-.02.04l-.09.09q-.04.06-.1.11l-.09.09q-.05.04-.06.05-.01.02-.08.05-.07.03-.16.06-.08.04-.15.07-.07.03-.09.03-.1.04-.21.1-.04.01-.06.03-.05.06-.05.18v.1q0 .06.02.11.02.06.05.1.03.03.05.04.02.01.04.01h.06q.01 0 .09-.01.07-.01.16-.02.09-.02.16-.03.07-.01.09-.01Zm2.11-3.34q-.02-.04-.02-.1v-.1q.02-.08.09-.29.07-.2.14-.42l.13-.43q.07-.2.1-.28.03-.08.06-.21.02-.14.06-.27.04-.13.11-.23.03-.05.08-.08.04-.02.1-.02.01 0 .03.01.04 0 .08.04.06.04.1.11.04.06.07.14.03.07.05.13.14.38.3.78.16.4.24.8v.15q0 .21-.1.3-.03.03-.07.04-.17.08-.39.08-.1 0-.2-.01-.09-.01-.19-.01h-.47q-.09 0-.21-.05-.06-.03-.09-.08Z" fill="#151618" fill-rule="evenodd"/>
</svg><svg fill="none" viewBox="0 0 26 20" id="mastercard" xmlns="http://www.w3.org/2000/svg">
    <defs>
        <clipPath id="na">
            <path fill="#fff" fill-opacity="0" d="M0 0h26v20H0z"/>
        </clipPath>
    </defs>
    <path d="M0 0h26v20H0z"/>
    <g clip-path="url(#na)">
        <path d="M4.72 19.9v-1.33c0-.51-.31-.84-.85-.84-.26 0-.55.09-.75.38a.8.8 0 0 0-.72-.38c-.22 0-.44.07-.62.31v-.26h-.47v2.12h.47v-1.17c0-.38.2-.56.51-.56s.47.2.47.56v1.17h.47v-1.17c0-.38.22-.56.51-.56.31 0 .47.2.47.56v1.17h.51Zm6.94-2.12h-.76v-.64h-.47v.64h-.42v.42h.42v.97c0 .48.2.77.74.77.2 0 .42-.07.57-.15l-.13-.4c-.13.09-.29.11-.4.11-.22 0-.31-.13-.31-.35v-.95h.76v-.42Zm3.96-.05a.64.64 0 0 0-.55.31v-.26h-.47v2.12h.47v-1.2c0-.35.15-.55.44-.55.09 0 .2.02.29.05l.14-.44c-.09-.03-.23-.03-.32-.03Zm-5.99.22c-.23-.15-.54-.22-.87-.22-.54 0-.89.27-.89.69 0 .35.26.55.73.62l.22.02c.25.04.38.11.38.22 0 .15-.18.26-.49.26s-.55-.11-.71-.22l-.22.36c.24.17.58.26.91.26.62 0 .98-.29.98-.68 0-.38-.29-.58-.73-.64l-.23-.03c-.2-.02-.35-.06-.35-.19 0-.16.15-.25.4-.25.26 0 .53.11.67.18l.2-.38Zm12.44-.22c-.27 0-.45.14-.56.31v-.26h-.47v2.12h.47v-1.2c0-.35.16-.55.45-.55.09 0 .2.02.29.05l.13-.44c-.09-.03-.22-.03-.31-.03Zm-5.98 1.11c0 .64.45 1.1 1.14 1.1.31 0 .53-.07.76-.24l-.23-.38c-.17.13-.35.2-.55.2-.38 0-.65-.26-.65-.68 0-.4.27-.67.65-.69.2 0 .38.07.55.2l.23-.37c-.23-.18-.45-.25-.76-.25-.69 0-1.14.47-1.14 1.11Zm4.33 0v-1.06h-.47v.26a.813.813 0 0 0-.67-.31c-.6 0-1.07.47-1.07 1.11 0 .64.47 1.1 1.07 1.1.31 0 .54-.11.67-.31v.27h.47v-1.06Zm-1.72 0c0-.38.25-.69.65-.69.38 0 .64.29.64.69 0 .37-.26.68-.64.68a.655.655 0 0 1-.65-.68Zm-5.6-1.11c-.62 0-1.07.44-1.07 1.11 0 .66.45 1.1 1.1 1.1.31 0 .62-.09.87-.29l-.23-.33c-.17.13-.4.22-.62.22-.29 0-.58-.13-.65-.5h1.59v-.18c.02-.69-.38-1.13-.99-1.13Zm0 .4c.29 0 .5.18.54.51h-1.11c.04-.29.24-.51.57-.51Zm11.62.71v-1.9h-.47v1.1c-.15-.2-.38-.31-.67-.31-.6 0-1.07.47-1.07 1.11 0 .64.47 1.1 1.07 1.1.32 0 .54-.11.67-.31v.27h.47v-1.06Zm-1.72 0c0-.38.25-.69.65-.69.38 0 .65.29.65.69 0 .37-.27.68-.65.68a.655.655 0 0 1-.65-.68Zm-15.65 0v-1.06h-.47v.26c-.15-.2-.37-.31-.66-.31-.61 0-1.07.47-1.07 1.11 0 .64.46 1.1 1.07 1.1.31 0 .53-.11.66-.31v.27h.47v-1.06Zm-1.74 0c0-.38.25-.69.65-.69.38 0 .65.29.65.69 0 .37-.27.68-.65.68a.655.655 0 0 1-.65-.68Z" fill="#151618"/>
        <path d="M9.47 1.69h7.02v12.49H9.47V1.69Z" fill="#FF5F00"/>
        <path d="M9.92 7.94c0-2.54 1.2-4.79 3.05-6.25A8.024 8.024 0 0 0 8.02 0C3.58 0 0 3.55 0 7.94c0 4.39 3.58 7.94 8.02 7.94 1.87 0 3.59-.64 4.95-1.7a7.896 7.896 0 0 1-3.05-6.24Z" fill="#EB001B"/>
        <path d="M25.97 7.94c0 4.39-3.59 7.94-8.03 7.94-1.87 0-3.59-.64-4.95-1.7a7.846 7.846 0 0 0 3.06-6.24c0-2.54-1.21-4.79-3.06-6.25A8.024 8.024 0 0 1 17.94 0c4.44 0 8.03 3.57 8.03 7.94Z" fill="#F79E1B"/>
    </g>
</svg><svg fill="none" viewBox="0 0 10 12" id="paypal" xmlns="http://www.w3.org/2000/svg">
    <defs>
        <clipPath id="oa">
            <path fill="#fff" fill-opacity="0" d="M0 0h10v12H0z"/>
        </clipPath>
    </defs>
    <path d="M0 0h10v12H0z"/>
    <g clip-path="url(#oa)">
        <path d="M8.48.93C7.93.3 6.95.03 5.69.03H2.04c-.13 0-.25.04-.34.12-.1.09-.16.2-.18.33L0 10.29c-.03.19.12.37.31.37h2.26L3.13 7l-.02.12c.04-.26.26-.45.52-.45H4.7c2.11 0 3.75-.87 4.24-3.39l.03-.21c.15-.93 0-1.57-.49-2.14Z" fill="#27346A"/>
        <path d="M3.99 2.73c.07-.03.13-.05.2-.05h2.87c.34 0 .65.03.94.07.08.02.16.03.24.05.12.03.23.06.34.09.14.05.27.11.39.18.15-.94 0-1.57-.49-2.14C7.93.3 6.95.03 5.69.03H2.04c-.26 0-.48.19-.52.45L0 10.29c-.03.19.12.37.31.37h2.26l1.17-7.58c.01-.08.04-.15.09-.21.04-.06.1-.11.16-.14Z" fill="#27346A"/>
        <path d="M8.94 3.28C8.45 5.8 6.81 6.67 4.7 6.67H3.63c-.26 0-.48.19-.52.45l-.7 4.54c-.03.17.1.32.27.32h1.9c.11 0 .22-.03.3-.11.08-.07.14-.17.15-.28l.02-.1.36-2.31.02-.12c.02-.11.08-.21.16-.28.08-.08.19-.12.3-.12h.28c1.84 0 3.28-.76 3.7-2.96.18-.92.09-1.69-.38-2.23-.14-.16-.31-.29-.52-.4l-.03.21Z" fill="#2790C3"/>
        <path d="m8.47 2.86-.23-.06c-.08-.02-.16-.03-.24-.04-.29-.05-.6-.08-.94-.08H4.19c-.07 0-.13.02-.19.05a.39.39 0 0 0-.17.14c-.05.06-.08.13-.09.21L3.13 7l-.02.12c.04-.26.26-.45.52-.45H4.7c2.11 0 3.75-.87 4.24-3.39l.03-.21c-.12-.07-.25-.13-.39-.17a.487.487 0 0 0-.11-.04Z" fill="#1F264F"/>
    </g>
</svg><svg fill="none" viewBox="0 0 20.805 20.805" id="phone" xmlns="http://www.w3.org/2000/svg">
    <path d="M15.66 20.72c-2.02-.51-6.15-1.93-9.9-5.68S.58 7.15.08 5.13c-.3-1.16.23-2.28 1.12-2.91L3.53.55c1.36-.97 3.25-.64 4.21.74L9.2 3.4c.62.9.41 2.14-.48 2.77l-1.17.84c.18.67.73 2.06 2.45 3.78 1.72 1.73 3.11 2.28 3.79 2.45l.83-1.16c.64-.89 1.87-1.11 2.77-.49l2.12 1.47c1.37.95 1.7 2.85.73 4.21l-1.66 2.33c-.64.89-1.76 1.41-2.92 1.12Zm-8.49-7.1c3.41 3.41 7.17 4.71 8.98 5.16.26.07.58-.04.8-.34l1.66-2.33a1 1 0 0 0-.24-1.41l-2.12-1.46-.89 1.25c-.37.52-1.05.92-1.84.75-.98-.22-2.8-.9-4.93-3.03-2.14-2.14-2.82-3.96-3.03-4.94-.17-.79.23-1.46.74-1.83l1.26-.9-1.47-2.11a1 1 0 0 0-1.4-.25L2.36 3.84c-.31.22-.41.54-.34.81.45 1.8 1.74 5.56 5.15 8.97Z" fill="#151618" fill-rule="evenodd"/>
</svg><svg fill="none" viewBox="0 0 22 22" id="search" xmlns="http://www.w3.org/2000/svg">
    <path d="M16.03 14.12A8.912 8.912 0 0 0 18 8.5a9 9 0 1 0-9 9c2.13 0 4.08-.73 5.62-1.97l5.67 5.67a.996.996 0 1 0 1.41-1.41l-5.67-5.67ZM9 15.51c-3.87 0-7.01-3.14-7.01-7.01 0-3.87 3.14-7.01 7.01-7.01 3.87 0 7.01 3.14 7.01 7.01 0 3.87-3.14 7.01-7.01 7.01Z" fill="#151618" fill-rule="evenodd"/>
</svg><svg fill="none" viewBox="0 0 22 18" id="twitter" xmlns="http://www.w3.org/2000/svg">
    <path d="M18.78 1.2c.35-.08.59-.16.79-.24.28-.12.51-.26.87-.49.31-.19.7-.21 1.03-.04.32.17.53.49.53.85 0 1.04-.14 1.89-.45 2.65-.26.63-.63 1.14-1.07 1.61-.19 3.24-1.16 5.79-2.65 7.72-1.54 2-3.6 3.28-5.76 4-2.16.71-4.44.87-6.48.63-2.03-.24-3.9-.89-5.21-1.87a.951.951 0 0 1-.31-1.14c.18-.4.62-.64 1.07-.57 1.28.17 2.52-.11 3.54-.51-.2-.11-.39-.22-.57-.34-.92-.62-1.67-1.46-2.01-2.11a.913.913 0 0 1 0-.85c.07-.14.17-.26.3-.35C1.04 9.07.5 7.58.5 6.58c0-.3.14-.58.38-.76.1-.08.22-.13.34-.17-.1-.28-.18-.57-.24-.85-.27-1.24-.24-2.64.05-3.76.09-.38.42-.66.83-.72.4-.05.8.13 1 .47C3.94 2.6 5.93 3.7 7.78 4.35c.87.31 1.67.5 2.27.62.13-1.18.48-2.15 1-2.92A4.613 4.613 0 0 1 13.74.16c1.78-.46 3.76.07 5.04 1.04ZM9.74 6.88c-.68-.13-1.62-.36-2.65-.72-1.36-.48-2.93-1.22-4.25-2.38.02.21.05.42.1.63.22 1.03.63 1.61 1 1.79.46.22.67.74.49 1.2-.24.62-.87.67-1.44.54.46.66 1.29 1.33 2.67 1.55.48.07.83.47.84.93 0 .47-.34.87-.81.96l-.87.17c.13.11.28.22.43.33.7.46 1.4.66 2 .52.45-.11.93.09 1.14.49.21.41.1.89-.25 1.18-.65.52-1.4.93-2.15 1.28-.36.16-.75.32-1.18.46.33.07.67.12 1.03.17 1.77.21 3.74.06 5.58-.55 1.84-.61 3.53-1.68 4.8-3.32 1.27-1.65 2.16-3.92 2.28-7.01.01-.24.11-.48.29-.65.45-.43.82-.93 1-1.52-.32.1-.68.18-1.11.26-.32.06-.66-.04-.89-.27-.77-.73-2.28-1.22-3.53-.89-.6.15-1.13.48-1.54 1.08-.41.61-.72 1.55-.72 2.99 0 .27-.12.53-.33.71-.5.44-1.34.18-1.93.07Z" fill="#0F0F0F" fill-rule="evenodd"/>
</svg><svg fill="none" viewBox="0 0 31 10" id="visa" xmlns="http://www.w3.org/2000/svg">
    <defs>
        <linearGradient x1="1425.19" y1="30.059" x2="1701.182" y2="-990.001" id="sa" gradientUnits="userSpaceOnUse">
            <stop stop-color="#222357"/>
            <stop offset="1" stop-color="#254AA5"/>
        </linearGradient>
    </defs>
    <path d="M16.03 3.19c-.02 1.39 1.24 2.17 2.19 2.63.98.48 1.3.78 1.3 1.21-.01.65-.78.93-1.5.94-1.26.02-1.99-.34-2.57-.61l-.46 2.12c.59.27 1.67.5 2.79.52 2.63 0 4.35-1.3 4.36-3.31.01-2.56-3.53-2.7-3.51-3.84.01-.34.34-.71 1.06-.81.36-.04 1.35-.08 2.47.43L22.6.42C22 .21 21.22 0 20.26 0c-2.48 0-4.22 1.31-4.23 3.19ZM26.83.17c-.48 0-.88.28-1.06.71l-3.76 8.96h2.63l.52-1.44h3.21l.31 1.44H31L28.97.17h-2.14Zm.37 2.61.76 3.64h-2.08l1.32-3.64ZM12.84.17l-2.07 9.67h2.5L15.34.17h-2.5Zm-3.71 0-2.6 6.59-1.06-5.6C5.35.53 4.86.17 4.32.17H.05L0 .45c.87.19 1.86.5 2.47.83.37.2.47.37.59.85l2 7.71h2.65L11.76.17H9.13Z" fill="url(#sa)"/>
</svg><svg fill="none" viewBox="0 0 24 18" id="yt" xmlns="http://www.w3.org/2000/svg">
    <path d="M.95 2.06C0 3.37 0 5.25 0 9c0 3.74 0 5.62.95 6.93.31.43.68.8 1.11 1.11C3.37 18 5.25 18 9 18h6c3.74 0 5.62 0 6.93-.96.43-.31.8-.68 1.11-1.11C24 14.62 24 12.74 24 9c0-3.75 0-5.63-.96-6.94-.31-.43-.68-.8-1.11-1.11C20.62 0 18.74 0 15 0H9C5.25 0 3.37 0 2.06.95c-.43.31-.8.68-1.11 1.11ZM15 2H9c-1.92 0-3.2 0-4.17.1-.93.1-1.34.28-1.6.47-.25.18-.48.41-.66.66-.19.26-.37.67-.47 1.6C2 5.8 2 7.08 2 9c0 1.91 0 3.19.1 4.16.1.93.28 1.34.47 1.6.18.25.41.48.66.66.26.19.67.37 1.6.47.97.1 2.25.11 4.17.11h6c1.91 0 3.19-.01 4.16-.11.93-.1 1.34-.28 1.6-.47.25-.18.48-.41.66-.66.19-.26.37-.67.47-1.6.1-.97.11-2.25.11-4.16 0-1.92-.01-3.2-.11-4.17-.1-.93-.28-1.34-.47-1.6-.18-.25-.41-.48-.66-.66-.26-.19-.67-.37-1.6-.47C18.19 2 16.91 2 15 2ZM8.49 4.13c.31-.18.69-.18 1 0l7 4A1 1 0 0 1 17 9c0 .35-.2.69-.51.86l-7 4A.99.99 0 0 1 8 13V5c0-.36.18-.69.49-.87ZM10 11.27 13.98 9 10 6.72v4.55Z" fill="#0F0F0F" fill-rule="evenodd"/>
</svg></svg>